<svg xmlns="http://www.w3.org/2000/svg" xmlns:xlink="http://www.w3.org/1999/xlink" viewBox="0 0 406.71 406.71"><defs><style>.cls-1{fill:#fff;}.cls-2{fill:url(#linear-gradient);}</style><linearGradient id="linear-gradient" x1="56.79" y1="203.35" x2="349.92" y2="203.35" gradientUnits="userSpaceOnUse"><stop offset="0" stop-color="#8339e4"/><stop offset="1" stop-color="#661bdd"/></linearGradient></defs><g id="Layer_2" data-name="Layer 2"><g id="Layer_1-2" data-name="Layer 1"><rect class="cls-1" width="406.71" height="406.71" rx="203.35"/><path class="cls-2" d="M302.55,133.28H260.82c-3.15-9.59-7.76-23.63-13.07-39.78-14.09-42.88-74.76-42.86-88.82,0l-13,39.75H104.16c-45.81,0-64.85,58.61-27.79,85.54l33.48,24.33c-3.15,9.63-7.77,23.72-13.1,40-14.31,43.62,35.69,80,72.79,52.94l34-24.81,33.61,24.42c37.12,27,87-9.43,72.72-53-5.3-16.12-9.88-30-13-39.47l33.47-24.41C367.38,191.81,348.31,133.28,302.55,133.28Zm-86.77-29.79,9.79,29.79H181.13l9.77-29.79C194.84,91.48,211.84,91.47,215.78,103.49ZM103.62,166.76h31.29l-14.09,43-25.2-18.31C84.94,183.65,90.43,166.76,103.62,166.76ZM128.4,294.07l9.91-30.24,36.79,26.73-25.73,18.76C138.68,317.11,124.28,306.64,128.4,294.07Zm75.14-24.24-54.26-39.42,20.87-63.65h66.42l20.93,63.72ZM232,290.45l36.46-26.62,9.76,29.67c4.13,12.56-10.25,23.05-21,15.28Zm53.93-80.7-14.12-43h31.26c13.19,0,18.69,16.87,8,24.64Z"/></g></g></svg>