<svg xmlns="http://www.w3.org/2000/svg" xmlns:xlink="http://www.w3.org/1999/xlink" viewBox="0 0 265.53 265.53"><defs><style>.cls-1{fill:url(#linear-gradient);}.cls-2{fill:#fff;}</style><linearGradient id="linear-gradient" x1="-31.97" y1="30.07" x2="278.45" y2="223.59" gradientUnits="userSpaceOnUse"><stop offset="0" stop-color="#8339e4"/><stop offset="1" stop-color="#661bdd"/></linearGradient></defs><g id="Layer_2" data-name="Layer 2"><g id="Layer_1-2" data-name="Layer 1"><rect class="cls-1" width="265.53" height="265.53"/><path class="cls-2" d="M204.47,82.11H174.3C172,75.19,168.69,65,164.86,53.36c-10.19-31-54-31-64.21,0-3.84,11.73-7.17,21.89-9.42,28.73H61.07C28,82.11,14.19,124.48,41,144l24.2,17.58-9.47,28.89c-10.34,31.53,25.8,57.82,52.61,38.27l24.6-17.93,24.29,17.64c26.84,19.5,62.92-6.81,52.57-38.32l-9.38-28.53,24.2-17.64C251.33,124.42,237.55,82.11,204.47,82.11ZM141.75,60.58l7.08,21.53H116.7l7.06-21.53A9.47,9.47,0,0,1,141.75,60.58ZM60.68,106.32H83.29L73.11,137.37,54.89,124.13A9.84,9.84,0,0,1,60.68,106.32Zm17.91,92,7.16-21.86,26.59,19.32L93.75,209.36A9.85,9.85,0,0,1,78.59,198.34Zm54.31-17.52-39.22-28.5,15.09-46h48l15.13,46.05Zm20.58,14.9,26.35-19.24,7.06,21.45a9.85,9.85,0,0,1-15.14,11Zm39-58.33-10.21-31.07h22.6a9.84,9.84,0,0,1,5.8,17.8Z"/></g></g></svg>