<svg xmlns="http://www.w3.org/2000/svg" viewBox="0 0 522.47 185.48"><defs><style>.cls-1{fill:#fff;}</style></defs><g id="Layer_2" data-name="Layer 2"><g id="Layer_1-2" data-name="Layer 1"><path class="cls-1" d="M160.5,47H133.25c-2.06-6.26-5.07-15.43-8.53-26-9.2-28-48.83-28-58,0L58.19,47H30.94C1,47-11.41,85.26,12.79,102.84l21.87,15.89-8.56,26.1c-9.35,28.5,23.31,52.25,47.54,34.58l22.22-16.2,22,15.94c24.24,17.62,56.85-6.15,47.49-34.62l-8.47-25.78c5.28-3.84,13-9.46,21.86-15.94C202.85,85.2,190.39,47,160.5,47ZM103.84,27.52,110.23,47h-29l6.38-19.46A8.55,8.55,0,0,1,103.84,27.52ZM30.59,68.84H51L41.82,96.9l-16.46-12A8.9,8.9,0,0,1,30.59,68.84ZM46.77,152l6.47-19.74,24,17.45L60.47,162A8.9,8.9,0,0,1,46.77,152Zm49.07-15.82L60.41,110.41,74,68.84h43.38l13.67,41.61Zm18.6,13.47,23.81-17.39,6.37,19.37a8.9,8.9,0,0,1-13.68,10Zm35.22-52.71-9.22-28.08h20.41a8.9,8.9,0,0,1,5.25,16.09Z"/><path class="cls-1" d="M207.42,152.51v-19h3.52v19Z"/><path class="cls-1" d="M224.19,137.88a6.89,6.89,0,0,1,3.1.67,5,5,0,0,1,2.16,2.07,7.34,7.34,0,0,1,.78,3.59v8.3h-3.38v-7.86a4,4,0,0,0-.91-2.87,3.32,3.32,0,0,0-2.53-.95,4.42,4.42,0,0,0-2.12.49,3.32,3.32,0,0,0-1.42,1.45,5.23,5.23,0,0,0-.5,2.42v7.32H216V138h3.23v3.9l-.57-1.19a5.11,5.11,0,0,1,2.21-2.13A7.15,7.15,0,0,1,224.19,137.88Z"/><path class="cls-1" d="M232.86,140.86v-2.71h9.65v2.71Zm7.37,11.84a5.09,5.09,0,0,1-3.68-1.24,4.76,4.76,0,0,1-1.3-3.64v-13h3.38v12.9a2.29,2.29,0,0,0,.53,1.6,1.92,1.92,0,0,0,1.48.57,3,3,0,0,0,1.9-.6l.94,2.41a3.78,3.78,0,0,1-1.46.73A6.29,6.29,0,0,1,240.23,152.7Z"/><path class="cls-1" d="M252.83,152.7a8.7,8.7,0,0,1-4.21-1,7,7,0,0,1-2.79-2.64,7.37,7.37,0,0,1-1-3.82,7.54,7.54,0,0,1,1-3.83,7,7,0,0,1,2.66-2.62,7.74,7.74,0,0,1,3.86-.94,7.51,7.51,0,0,1,3.76.92,6.63,6.63,0,0,1,2.6,2.6,7.83,7.83,0,0,1,.95,3.95c0,.15,0,.31,0,.49s0,.35,0,.52H247.52v-2.25h10.27l-1.33.7a4.13,4.13,0,0,0-.51-2.19,3.92,3.92,0,0,0-1.48-1.49,4.22,4.22,0,0,0-2.15-.55,4.28,4.28,0,0,0-2.18.55,3.79,3.79,0,0,0-1.47,1.5,4.63,4.63,0,0,0-.53,2.26v.54a4.42,4.42,0,0,0,.6,2.31,4,4,0,0,0,1.68,1.54,5.5,5.5,0,0,0,2.49.54,5.87,5.87,0,0,0,2.2-.38,4.6,4.6,0,0,0,1.73-1.19l1.82,2.09a6.39,6.39,0,0,1-2.46,1.75A8.85,8.85,0,0,1,252.83,152.7Z"/><path class="cls-1" d="M269.25,151.86a8,8,0,0,1-3.73-.88,6.68,6.68,0,0,1-2.62-2.46,7.43,7.43,0,0,1,0-7.34,6.56,6.56,0,0,1,2.62-2.44,8,8,0,0,1,3.73-.86,7.29,7.29,0,0,1,3.31.73,5.49,5.49,0,0,1,2.34,2.27,9.37,9.37,0,0,1,0,7.93,5.63,5.63,0,0,1-2.34,2.3A7.17,7.17,0,0,1,269.25,151.86Zm.43,6.09a14.29,14.29,0,0,1-3.91-.53,8.26,8.26,0,0,1-3.13-1.53l1.52-2.54a7.4,7.4,0,0,0,2.39,1.26,9.61,9.61,0,0,0,2.94.47A4.83,4.83,0,0,0,273,154a4.44,4.44,0,0,0,1.11-3.29v-2.57l.27-3.28-.11-3.28V138h3.23v12.27q0,3.93-2,5.79A8.28,8.28,0,0,1,269.68,158Zm.08-9a4.85,4.85,0,0,0,2.28-.52A3.88,3.88,0,0,0,273.6,147a4.5,4.5,0,0,0,0-4.31,3.66,3.66,0,0,0-1.56-1.43,5.45,5.45,0,0,0-4.56,0,3.66,3.66,0,0,0-1.58,1.43,4.5,4.5,0,0,0,0,4.31,3.87,3.87,0,0,0,1.58,1.47A4.88,4.88,0,0,0,269.76,149Z"/><path class="cls-1" d="M282.17,152.51V138h3.23v4l-.38-1.16a4.57,4.57,0,0,1,2-2.23,7.3,7.3,0,0,1,3.49-.75v3.22a2.2,2.2,0,0,0-.41-.07h-.38a4.16,4.16,0,0,0-3.06,1.12,4.52,4.52,0,0,0-1.14,3.35v7Z"/><path class="cls-1" d="M297,152.7a6.79,6.79,0,0,1-2.84-.56,4.37,4.37,0,0,1-1.88-1.54,3.89,3.89,0,0,1-.67-2.24,4.18,4.18,0,0,1,.59-2.19,3.88,3.88,0,0,1,1.91-1.55,9,9,0,0,1,3.52-.57h4.2v2.25h-4a3.54,3.54,0,0,0-2.33.56,1.77,1.77,0,0,0-.59,1.36,1.72,1.72,0,0,0,.73,1.47,3.35,3.35,0,0,0,2,.54,4.38,4.38,0,0,0,2.23-.57,3.25,3.25,0,0,0,1.43-1.68l.57,2a3.79,3.79,0,0,1-1.75,2A6.46,6.46,0,0,1,297,152.7Zm4.56-.19v-2.93l-.19-.62v-5.12a3,3,0,0,0-.9-2.32,3.87,3.87,0,0,0-2.71-.83,7.81,7.81,0,0,0-2.39.38,6.14,6.14,0,0,0-2,1.06L292,139.66a8.12,8.12,0,0,1,2.77-1.34,12.42,12.42,0,0,1,3.35-.44,7.14,7.14,0,0,1,4.86,1.5,5.83,5.83,0,0,1,1.72,4.64v8.49Z"/><path class="cls-1" d="M307.4,140.86v-2.71H317v2.71Zm7.37,11.84a5.13,5.13,0,0,1-3.69-1.24,4.8,4.8,0,0,1-1.3-3.64v-13h3.39v12.9a2.29,2.29,0,0,0,.53,1.6,1.91,1.91,0,0,0,1.48.57,3,3,0,0,0,1.89-.6l.95,2.41a3.93,3.93,0,0,1-1.46.73A6.34,6.34,0,0,1,314.77,152.7Z"/><path class="cls-1" d="M322.76,135.65a2.18,2.18,0,0,1-1.56-.59,2,2,0,0,1-.61-1.44,2,2,0,0,1,.61-1.45,2.17,2.17,0,0,1,1.56-.58,2.24,2.24,0,0,1,1.56.55,1.81,1.81,0,0,1,.61,1.4,2,2,0,0,1-.6,1.5A2.07,2.07,0,0,1,322.76,135.65Zm-1.71,16.86V138h3.39v14.47Z"/><path class="cls-1" d="M337.34,137.88a6.92,6.92,0,0,1,3.1.67,5,5,0,0,1,2.15,2.07,7.23,7.23,0,0,1,.79,3.59v8.3H340v-7.86a4,4,0,0,0-.9-2.87,3.33,3.33,0,0,0-2.54-.95,4.38,4.38,0,0,0-2.11.49,3.27,3.27,0,0,0-1.42,1.45,5.11,5.11,0,0,0-.5,2.42v7.32h-3.39V138h3.22v3.9l-.57-1.19a5.22,5.22,0,0,1,2.21-2.13A7.19,7.19,0,0,1,337.34,137.88Z"/><path class="cls-1" d="M354.08,151.86a7.92,7.92,0,0,1-3.72-.88,6.7,6.7,0,0,1-2.63-2.46,7.5,7.5,0,0,1,0-7.34,6.58,6.58,0,0,1,2.63-2.44,7.9,7.9,0,0,1,3.72-.86,7.29,7.29,0,0,1,3.31.73,5.49,5.49,0,0,1,2.34,2.27,9.37,9.37,0,0,1,0,7.93,5.63,5.63,0,0,1-2.34,2.3A7.17,7.17,0,0,1,354.08,151.86Zm.44,6.09a14.31,14.31,0,0,1-3.92-.53,8.33,8.33,0,0,1-3.13-1.53l1.52-2.54a7.35,7.35,0,0,0,2.4,1.26,9.52,9.52,0,0,0,2.94.47,4.82,4.82,0,0,0,3.49-1.1,4.44,4.44,0,0,0,1.11-3.29v-2.57l.27-3.28-.11-3.28V138h3.23v12.27q0,3.93-2,5.79A8.25,8.25,0,0,1,354.52,158Zm.08-9a4.81,4.81,0,0,0,2.27-.52,3.88,3.88,0,0,0,1.56-1.47,4.43,4.43,0,0,0,0-4.31,3.66,3.66,0,0,0-1.56-1.43,4.92,4.92,0,0,0-2.27-.5,5,5,0,0,0-2.29.5,3.63,3.63,0,0,0-1.57,1.43,4.43,4.43,0,0,0,0,4.31,3.85,3.85,0,0,0,1.57,1.47A4.89,4.89,0,0,0,354.6,149Z"/><path class="cls-1" d="M375.05,152.51v-19h3.52v19Z"/><path class="cls-1" d="M391.82,137.88a6.89,6.89,0,0,1,3.1.67,5,5,0,0,1,2.16,2.07,7.34,7.34,0,0,1,.79,3.59v8.3h-3.39v-7.86a4,4,0,0,0-.91-2.87,3.32,3.32,0,0,0-2.53-.95,4.42,4.42,0,0,0-2.12.49,3.37,3.37,0,0,0-1.42,1.45,5.23,5.23,0,0,0-.5,2.42v7.32h-3.39V138h3.23v3.9l-.57-1.19a5.11,5.11,0,0,1,2.21-2.13A7.15,7.15,0,0,1,391.82,137.88Z"/><path class="cls-1" d="M410.63,137.88a6.92,6.92,0,0,1,3.1.67,5,5,0,0,1,2.15,2.07,7.23,7.23,0,0,1,.79,3.59v8.3h-3.39v-7.86a4,4,0,0,0-.91-2.87,3.3,3.3,0,0,0-2.53-.95,4.35,4.35,0,0,0-2.11.49,3.34,3.34,0,0,0-1.43,1.45,5.23,5.23,0,0,0-.5,2.42v7.32h-3.38V138h3.22v3.9l-.57-1.19a5.17,5.17,0,0,1,2.21-2.13A7.19,7.19,0,0,1,410.63,137.88Z"/><path class="cls-1" d="M427.75,152.7a8,8,0,0,1-4-1,7.21,7.21,0,0,1-2.73-2.64,7.36,7.36,0,0,1,2.73-10.27,8.16,8.16,0,0,1,4-.94,8.29,8.29,0,0,1,4,.94,7.11,7.11,0,0,1,2.73,2.6,7.92,7.92,0,0,1,0,7.67,7.07,7.07,0,0,1-2.73,2.64A8.09,8.09,0,0,1,427.75,152.7Zm0-2.9a4.5,4.5,0,0,0,2.22-.54,3.88,3.88,0,0,0,1.53-1.58,5.49,5.49,0,0,0,0-4.83,3.83,3.83,0,0,0-1.53-1.56,4.75,4.75,0,0,0-4.4,0,4,4,0,0,0-1.53,1.56,5.4,5.4,0,0,0,0,4.83,4,4,0,0,0,1.53,1.58A4.38,4.38,0,0,0,427.75,149.8Z"/><path class="cls-1" d="M442.41,152.51,436.2,138h3.52l5.34,12.76h-1.73L448.86,138h3.25l-6.21,14.47Z"/><path class="cls-1" d="M458.37,152.7a6.8,6.8,0,0,1-2.85-.56,4.37,4.37,0,0,1-1.88-1.54,4,4,0,0,1-.67-2.24,4.18,4.18,0,0,1,.59-2.19,3.93,3.93,0,0,1,1.91-1.55,9,9,0,0,1,3.52-.57h4.2v2.25h-4a3.54,3.54,0,0,0-2.33.56,1.8,1.8,0,0,0-.59,1.36,1.72,1.72,0,0,0,.73,1.47,3.35,3.35,0,0,0,2,.54,4.42,4.42,0,0,0,2.24-.57,3.23,3.23,0,0,0,1.42-1.68l.57,2a3.79,3.79,0,0,1-1.75,2A6.45,6.45,0,0,1,458.37,152.7Zm4.55-.19v-2.93l-.19-.62v-5.12a3,3,0,0,0-.9-2.32,3.86,3.86,0,0,0-2.7-.83,7.82,7.82,0,0,0-2.4.38,6,6,0,0,0-2,1.06l-1.33-2.47a8.08,8.08,0,0,1,2.78-1.34,12.34,12.34,0,0,1,3.34-.44,7.18,7.18,0,0,1,4.87,1.5,5.86,5.86,0,0,1,1.71,4.64v8.49Z"/><path class="cls-1" d="M468.77,140.86v-2.71h9.65v2.71Zm7.37,11.84a5.09,5.09,0,0,1-3.68-1.24,4.76,4.76,0,0,1-1.31-3.64v-13h3.39v12.9a2.29,2.29,0,0,0,.53,1.6,1.91,1.91,0,0,0,1.48.57,3,3,0,0,0,1.89-.6l.95,2.41a3.86,3.86,0,0,1-1.46.73A6.34,6.34,0,0,1,476.14,152.7Z"/><path class="cls-1" d="M484.13,135.65a2.14,2.14,0,0,1-1.55-.59,1.94,1.94,0,0,1-.61-1.44,1.91,1.91,0,0,1,.61-1.45,2.13,2.13,0,0,1,1.55-.58,2.2,2.2,0,0,1,1.56.55,1.81,1.81,0,0,1,.61,1.4,2,2,0,0,1-.6,1.5A2.07,2.07,0,0,1,484.13,135.65Zm-1.7,16.86V138h3.38v14.47Z"/><path class="cls-1" d="M497,152.7a7.89,7.89,0,0,1-3.95-1,7.17,7.17,0,0,1-2.74-2.64,7.82,7.82,0,0,1,0-7.65,7.19,7.19,0,0,1,2.74-2.62,8.09,8.09,0,0,1,3.95-.94,8.29,8.29,0,0,1,4,.94,7.21,7.21,0,0,1,2.74,2.6,8,8,0,0,1,0,7.67,7.17,7.17,0,0,1-2.74,2.64A8.09,8.09,0,0,1,497,152.7Zm0-2.9a4.5,4.5,0,0,0,2.22-.54,3.88,3.88,0,0,0,1.53-1.58,5.49,5.49,0,0,0,0-4.83,3.83,3.83,0,0,0-1.53-1.56,4.75,4.75,0,0,0-4.4,0,4,4,0,0,0-1.53,1.56,5.4,5.4,0,0,0,0,4.83,4,4,0,0,0,1.53,1.58A4.38,4.38,0,0,0,497,149.8Z"/><path class="cls-1" d="M516.43,137.88a6.92,6.92,0,0,1,3.1.67,5,5,0,0,1,2.15,2.07,7.23,7.23,0,0,1,.79,3.59v8.3h-3.39v-7.86a4,4,0,0,0-.9-2.87,3.33,3.33,0,0,0-2.54-.95,4.38,4.38,0,0,0-2.11.49,3.32,3.32,0,0,0-1.42,1.45,5.11,5.11,0,0,0-.5,2.42v7.32h-3.39V138h3.22v3.9l-.57-1.19a5.22,5.22,0,0,1,2.21-2.13A7.19,7.19,0,0,1,516.43,137.88Z"/><path class="cls-1" d="M204.63,110.61l37-83.08h19l37.15,83.08H277.62L247.24,37.26h7.59l-30.5,73.35Zm18.51-17.8,5.11-14.6H271l5.23,14.6Z"/><path class="cls-1" d="M301.59,110.61V99.45l37.75-44.62,3.2,6.17H302.42V46.76h55.07V57.91l-37.74,44.63-3.32-6.17h42.13v14.24Z"/><path class="cls-1" d="M402.36,111.56a41.22,41.22,0,0,1-19.17-4.27A31.57,31.57,0,0,1,370.43,95.6a32,32,0,0,1-4.51-16.92,32.53,32.53,0,0,1,4.45-17A31.58,31.58,0,0,1,382.54,50a38.14,38.14,0,0,1,34.36-.24,29.8,29.8,0,0,1,11.93,11.4q4.38,7.41,4.39,17.74,0,1.06-.12,2.43c-.08.91-.16,1.77-.24,2.56H381V73.1h42.13L416,76.31a17.79,17.79,0,0,0-2-8.66,14.59,14.59,0,0,0-5.58-5.76,16.22,16.22,0,0,0-8.31-2.08,16.54,16.54,0,0,0-8.36,2.08,14.41,14.41,0,0,0-5.64,5.81,18.36,18.36,0,0,0-2,8.85V79.4a17.85,17.85,0,0,0,2.32,9.19,15.05,15.05,0,0,0,6.52,6.06,22.26,22.26,0,0,0,9.91,2.07,24.08,24.08,0,0,0,9-1.54,21.86,21.86,0,0,0,7.06-4.63l9.85,10.68a28.66,28.66,0,0,1-11,7.66A40.86,40.86,0,0,1,402.36,111.56Z"/><path class="cls-1" d="M485.44,45.81a29.85,29.85,0,0,1,13.59,3,22,22,0,0,1,9.43,9.26q3.45,6.24,3.45,16v36.56H493.39V76.9q0-7.71-3.38-11.39t-9.56-3.68a16.69,16.69,0,0,0-7.89,1.84,12.85,12.85,0,0,0-5.46,5.64,21.23,21.23,0,0,0-2,9.73v31.57H446.63V46.76h17.68V64.44L461,59.1a23.68,23.68,0,0,1,9.85-9.85A30.42,30.42,0,0,1,485.44,45.81Z"/></g></g></svg>