<svg xmlns="http://www.w3.org/2000/svg" viewBox="0 0 629.97 208.86"><defs><style>.cls-1{fill:#febe10;}.cls-2{fill:#007bc1;}.cls-3{fill:#0db14b;}.cls-4{fill:#ee2346;}</style></defs><g id="Layer_2" data-name="Layer 2"><g id="Layer_1-2" data-name="Layer 1"><path d="M376.88,128.34h-22a9.6,9.6,0,0,1-6-1.72,10.94,10.94,0,0,1-3.44-4.41l-7.23-21.34H291.68l-7.23,21.34a10.12,10.12,0,0,1-3.32,4.24,9.25,9.25,0,0,1-5.92,1.89H253L300.42,5.92h29.07Zm-45.12-46.8L320.42,48c-.84-2.13-1.74-4.63-2.69-7.52s-1.91-6-2.86-9.37q-1.26,5.13-2.69,9.5t-2.69,7.56L298.23,81.54Z"/><path d="M448.31,51.63a15,15,0,0,1-.93,5.21A11.76,11.76,0,0,1,445,61L408.56,109h38.91v19.32H378.56V117.76a13,13,0,0,1,.84-4,15.13,15.13,0,0,1,2.52-4.53l36.72-48.66H380.92V41.21h67.39Z"/><path d="M481.83,89.44q1.26,10.92,6.64,15.84t13.86,4.91a24.81,24.81,0,0,0,7.82-1.09,39.49,39.49,0,0,0,5.84-2.44l4.71-2.43a9.69,9.69,0,0,1,4.49-1.09,5.4,5.4,0,0,1,4.71,2.26l7.56,9.33a38.69,38.69,0,0,1-8.7,7.52,44.7,44.7,0,0,1-9.58,4.54,51.91,51.91,0,0,1-9.83,2.27,73.84,73.84,0,0,1-9.37.63,49.12,49.12,0,0,1-17.18-3,39.48,39.48,0,0,1-14-8.87,41.65,41.65,0,0,1-9.5-14.62,54.73,54.73,0,0,1-3.49-20.34,46,46,0,0,1,3-16.55,40.16,40.16,0,0,1,22.1-23,48.19,48.19,0,0,1,33.78-.76A34.49,34.49,0,0,1,527,50.37a35.59,35.59,0,0,1,8.06,12.56A45.94,45.94,0,0,1,538,79.78a36.58,36.58,0,0,1-.25,4.79,7.78,7.78,0,0,1-.92,2.94A3.5,3.5,0,0,1,535,89a8.47,8.47,0,0,1-2.9.42ZM514.6,74.31a22.74,22.74,0,0,0-.8-6A14.69,14.69,0,0,0,511.2,63a13.41,13.41,0,0,0-4.75-3.74,16.26,16.26,0,0,0-7.14-1.43q-7.4,0-11.6,4.25t-5.54,12.22Z"/><path d="M575,50.62a60.89,60.89,0,0,1,5.21-4.37,30,30,0,0,1,5.75-3.4,33.8,33.8,0,0,1,6.64-2.19,35.73,35.73,0,0,1,7.77-.8A30.57,30.57,0,0,1,613,42.34a26.32,26.32,0,0,1,9.29,6.89A29.72,29.72,0,0,1,628,59.74,43.48,43.48,0,0,1,630,73v55.37H603.92V73q0-6.39-2.94-10t-8.65-3.57a18.14,18.14,0,0,0-8,1.81A32.44,32.44,0,0,0,577,66.16v62.18H551V41.21h16.13c3.25,0,5.38,1.45,6.38,4.37Z"/><path d="M281.48,185a.67.67,0,0,1,.5.21l1.18,1.27a19.42,19.42,0,0,1-2.81,2.48,16.9,16.9,0,0,1-3.33,1.89,19.94,19.94,0,0,1-4,1.21,24.91,24.91,0,0,1-4.75.42,20.32,20.32,0,0,1-7.94-1.51,17.9,17.9,0,0,1-6.2-4.3,19.57,19.57,0,0,1-4-6.73,25.47,25.47,0,0,1-1.43-8.78,24.42,24.42,0,0,1,1.47-8.65,19.77,19.77,0,0,1,4.12-6.73,18.27,18.27,0,0,1,6.36-4.36,21.12,21.12,0,0,1,8.19-1.55A19.36,19.36,0,0,1,282.42,155l-.91,1.32a.82.82,0,0,1-.74.36,2.37,2.37,0,0,1-1.14-.65,15.53,15.53,0,0,0-2.21-1.43,19.69,19.69,0,0,0-3.52-1.43,17.43,17.43,0,0,0-5-.64,18,18,0,0,0-6.91,1.29,15.38,15.38,0,0,0-5.39,3.71,17,17,0,0,0-3.51,5.89,22.55,22.55,0,0,0-1.27,7.8,22.85,22.85,0,0,0,1.28,7.9,17.24,17.24,0,0,0,3.52,5.87,15.11,15.11,0,0,0,5.28,3.68,16.94,16.94,0,0,0,6.59,1.28,25,25,0,0,0,4-.29,15.49,15.49,0,0,0,3.22-.89,14.57,14.57,0,0,0,2.74-1.44,21.26,21.26,0,0,0,2.5-2,1.66,1.66,0,0,1,.3-.19A.6.6,0,0,1,281.48,185Z"/><path d="M292.29,169.79a17.86,17.86,0,0,1,1.54-3.19,9.77,9.77,0,0,1,2-2.37,8,8,0,0,1,2.53-1.49,8.77,8.77,0,0,1,3.1-.52,10.76,10.76,0,0,1,1.8.16,4.47,4.47,0,0,1,1.56.58l-.23,1.94a.57.57,0,0,1-.56.47,4.65,4.65,0,0,1-1.08-.2,7,7,0,0,0-1.9-.21,8.1,8.1,0,0,0-3,.52,6.8,6.8,0,0,0-2.35,1.54,9.92,9.92,0,0,0-1.83,2.55,24.72,24.72,0,0,0-1.43,3.49v19h-2.82v-29.3h1.5a1,1,0,0,1,.71.21,1.24,1.24,0,0,1,.26.71Z"/><path d="M309.78,176.21v.56a19.89,19.89,0,0,0,.76,5.8,11.94,11.94,0,0,0,2.18,4.2,9,9,0,0,0,3.42,2.54,11.28,11.28,0,0,0,4.47.86,13.5,13.5,0,0,0,3.83-.49,14.34,14.34,0,0,0,2.73-1.09,14.14,14.14,0,0,0,1.75-1.09,2,2,0,0,1,.94-.48.66.66,0,0,1,.59.29l.76.94a7.85,7.85,0,0,1-1.87,1.65,12.82,12.82,0,0,1-2.59,1.31,18.5,18.5,0,0,1-3.06.87,16.5,16.5,0,0,1-3.28.32,13.9,13.9,0,0,1-5.48-1,11.6,11.6,0,0,1-4.24-3.05,13.69,13.69,0,0,1-2.72-4.9,21.15,21.15,0,0,1-1-6.64,18.12,18.12,0,0,1,.9-5.82,13.4,13.4,0,0,1,2.59-4.59,11.8,11.8,0,0,1,4.15-3,13.75,13.75,0,0,1,5.58-1.09,12.13,12.13,0,0,1,4.59.86,10.32,10.32,0,0,1,3.69,2.48,11.72,11.72,0,0,1,2.45,4,15.47,15.47,0,0,1,.9,5.48,1.62,1.62,0,0,1-.17.88.69.69,0,0,1-.59.24Zm19.55-1.8a12.59,12.59,0,0,0-.66-4.22A9.06,9.06,0,0,0,326.8,167a8.36,8.36,0,0,0-2.87-2,9.48,9.48,0,0,0-3.67-.69,11,11,0,0,0-4.06.71,8.88,8.88,0,0,0-3.11,2,10.33,10.33,0,0,0-2.11,3.18,14.94,14.94,0,0,0-1.05,4.15Z"/><path d="M338.66,166.87a17.09,17.09,0,0,1,4.83-3.47,13.57,13.57,0,0,1,5.74-1.18,10.5,10.5,0,0,1,4.13.75,7.73,7.73,0,0,1,2.93,2.15,9.48,9.48,0,0,1,1.75,3.39,15.62,15.62,0,0,1,.59,4.43V192h-1.12a1,1,0,0,1-1.09-.82l-.41-3.77c-.81.78-1.61,1.49-2.4,2.12a14.52,14.52,0,0,1-2.49,1.59,13.08,13.08,0,0,1-2.8,1,14.72,14.72,0,0,1-3.3.35,9.5,9.5,0,0,1-2.91-.44,7.31,7.31,0,0,1-2.52-1.35,6.77,6.77,0,0,1-1.77-2.34,8.17,8.17,0,0,1-.66-3.43,6.15,6.15,0,0,1,1.06-3.45,8.78,8.78,0,0,1,3.33-2.77,22.22,22.22,0,0,1,5.82-1.88,50.52,50.52,0,0,1,8.52-.83v-3.06a9.82,9.82,0,0,0-1.75-6.26,6.26,6.26,0,0,0-5.2-2.19,9.89,9.89,0,0,0-3.61.59,12.46,12.46,0,0,0-2.51,1.29,15.58,15.58,0,0,0-1.68,1.3,1.84,1.84,0,0,1-1.09.59.86.86,0,0,1-.53-.15,1.31,1.31,0,0,1-.36-.38Zm17.23,11a55.89,55.89,0,0,0-7.2.66,20.66,20.66,0,0,0-5,1.4,7.45,7.45,0,0,0-2.9,2.11,4.41,4.41,0,0,0-.94,2.78,6,6,0,0,0,.49,2.54,4.89,4.89,0,0,0,1.29,1.77,5.32,5.32,0,0,0,1.87,1,7.77,7.77,0,0,0,2.21.32,12.41,12.41,0,0,0,3.14-.37,11.58,11.58,0,0,0,2.65-1,13,13,0,0,0,2.28-1.57c.71-.61,1.4-1.27,2.09-2Z"/><path d="M392,192h-2.83V165.73h-17V185.6a6.37,6.37,0,0,0,.31,2.08,3.9,3.9,0,0,0,.86,1.43,3.39,3.39,0,0,0,1.28.82,4.58,4.58,0,0,0,1.59.27,5,5,0,0,0,1.82-.31,7.48,7.48,0,0,0,1.33-.68,8.25,8.25,0,0,0,.91-.68,1.05,1.05,0,0,1,.56-.31.63.63,0,0,1,.47.3l.77,1.23a8.2,8.2,0,0,1-2.84,2,8.91,8.91,0,0,1-3.58.75,6.29,6.29,0,0,1-4.64-1.65c-1.11-1.1-1.66-2.79-1.66-5.09v-20h-4.21a.76.76,0,0,1-.53-.18.63.63,0,0,1-.21-.5V164l5-.35.7-10.49a1.11,1.11,0,0,1,.24-.47.64.64,0,0,1,.5-.2h1.32v11.19H392Zm1.3-39.75a2.39,2.39,0,0,1-.22,1,3.12,3.12,0,0,1-.59.81,2.91,2.91,0,0,1-.84.55,2.51,2.51,0,0,1-2,0,2.69,2.69,0,0,1-.82-.55,3,3,0,0,1-.56-.81,2.38,2.38,0,0,1-.21-1,2.59,2.59,0,0,1,.21-1,2.87,2.87,0,0,1,.56-.84,2.91,2.91,0,0,1,.82-.56,2.63,2.63,0,0,1,2,0,3.16,3.16,0,0,1,.84.56,3,3,0,0,1,.59.84A2.6,2.6,0,0,1,393.29,152.27Z"/><path d="M404.65,167.85a16.63,16.63,0,0,1,4.7-4.07,11.67,11.67,0,0,1,5.93-1.53,11.05,11.05,0,0,1,4.26.77,7.72,7.72,0,0,1,3,2.21,9.67,9.67,0,0,1,1.83,3.47,15.83,15.83,0,0,1,.62,4.59V192H422.2V173.29a10.08,10.08,0,0,0-1.88-6.46c-1.26-1.56-3.17-2.34-5.75-2.34a10.41,10.41,0,0,0-5.34,1.46A15,15,0,0,0,404.8,170v22H402v-29.3h1.56a.79.79,0,0,1,.86.74Z"/><path d="M458,164v1c0,.43-.28.7-.83.8l-4.47.32a8.52,8.52,0,0,1,1.26,2.5,9.74,9.74,0,0,1,.45,3,9.37,9.37,0,0,1-.76,3.84,8.22,8.22,0,0,1-2.12,2.94,9.61,9.61,0,0,1-3.29,1.9,13.79,13.79,0,0,1-8.82-.09,6.26,6.26,0,0,0-2,1.67,3.16,3.16,0,0,0-.72,1.9,2.28,2.28,0,0,0,.9,1.94,6,6,0,0,0,2.35,1,20.6,20.6,0,0,0,3.33.39l3.81.2c1.3.07,2.57.19,3.82.36a12.3,12.3,0,0,1,3.32.93,6,6,0,0,1,2.36,1.86,5.11,5.11,0,0,1,.9,3.16,7.25,7.25,0,0,1-.92,3.51,9.08,9.08,0,0,1-2.63,3,14,14,0,0,1-4.17,2.08,18,18,0,0,1-5.48.78,20.75,20.75,0,0,1-5.41-.64,13,13,0,0,1-3.9-1.7,7.44,7.44,0,0,1-2.37-2.49,6,6,0,0,1-.8-3,5.69,5.69,0,0,1,1.53-4,10.23,10.23,0,0,1,4.18-2.6,5.75,5.75,0,0,1-2.37-1.46,3.66,3.66,0,0,1-.9-2.61,3.85,3.85,0,0,1,.24-1.29,5.27,5.27,0,0,1,.71-1.34,6.69,6.69,0,0,1,1.15-1.25,8.14,8.14,0,0,1,1.53-1.06,8.81,8.81,0,0,1-3.26-3.21,9.23,9.23,0,0,1-1.16-4.68,9.55,9.55,0,0,1,.75-3.85,8.49,8.49,0,0,1,2.14-3,9.72,9.72,0,0,1,3.31-1.91,12.85,12.85,0,0,1,4.28-.68,13,13,0,0,1,3.58.47,10.75,10.75,0,0,1,2.93,1.33Zm-3.06,30a3.3,3.3,0,0,0-.73-2.22,4.82,4.82,0,0,0-1.92-1.31,11.9,11.9,0,0,0-2.79-.66c-1.05-.13-2.15-.22-3.29-.28l-3.47-.18a29.08,29.08,0,0,1-3.26-.35,13.26,13.26,0,0,0-2.07,1,7.52,7.52,0,0,0-1.61,1.32,5.5,5.5,0,0,0-1.06,1.6,4.65,4.65,0,0,0,.28,4.27,5.81,5.81,0,0,0,1.94,1.91,10.67,10.67,0,0,0,3.14,1.28,17,17,0,0,0,4.26.48,16.21,16.21,0,0,0,4.17-.51,11.41,11.41,0,0,0,3.36-1.41,7.19,7.19,0,0,0,2.24-2.18A5,5,0,0,0,454.89,194Zm-11-14.92a9.7,9.7,0,0,0,3.36-.55,6.83,6.83,0,0,0,2.47-1.52,6.35,6.35,0,0,0,1.53-2.32,8.73,8.73,0,0,0,0-6,6.46,6.46,0,0,0-1.56-2.34,7,7,0,0,0-2.48-1.51,10.6,10.6,0,0,0-6.62,0,7,7,0,0,0-2.47,1.51,6.19,6.19,0,0,0-1.55,2.34,8.81,8.81,0,0,0,0,6,6.27,6.27,0,0,0,1.55,2.32,7,7,0,0,0,2.47,1.52A9.45,9.45,0,0,0,443.93,179.07Z"/><path d="M502.53,162.72,490.16,192h-2.47l-12.37-29.3h2.21a1.09,1.09,0,0,1,.68.22,1.15,1.15,0,0,1,.35.49l9.69,23.11a21.41,21.41,0,0,1,.7,2.57,20,20,0,0,1,.74-2.57l9.72-23.11a1.32,1.32,0,0,1,.4-.52,1,1,0,0,1,.6-.19Z"/><path d="M507.15,166.87A17.09,17.09,0,0,1,512,163.4a13.54,13.54,0,0,1,5.74-1.18,10.53,10.53,0,0,1,4.13.75,7.73,7.73,0,0,1,2.93,2.15,9.48,9.48,0,0,1,1.75,3.39,15.62,15.62,0,0,1,.59,4.43V192H526a1,1,0,0,1-1.09-.82l-.41-3.77c-.81.78-1.61,1.49-2.4,2.12a14.52,14.52,0,0,1-2.49,1.59,13.27,13.27,0,0,1-2.8,1,14.72,14.72,0,0,1-3.3.35,9.5,9.5,0,0,1-2.91-.44,7.31,7.31,0,0,1-2.52-1.35,6.65,6.65,0,0,1-1.77-2.34,8.17,8.17,0,0,1-.66-3.43,6.07,6.07,0,0,1,1.06-3.45,8.78,8.78,0,0,1,3.33-2.77,22.27,22.27,0,0,1,5.81-1.88,50.76,50.76,0,0,1,8.53-.83v-3.06a9.88,9.88,0,0,0-1.75-6.26,6.26,6.26,0,0,0-5.2-2.19,9.89,9.89,0,0,0-3.61.59,12.46,12.46,0,0,0-2.51,1.29,15.58,15.58,0,0,0-1.68,1.3,1.87,1.87,0,0,1-1.09.59.86.86,0,0,1-.53-.15,1.31,1.31,0,0,1-.36-.38Zm17.23,11a55.89,55.89,0,0,0-7.2.66,20.66,20.66,0,0,0-5,1.4,7.45,7.45,0,0,0-2.9,2.11,4.41,4.41,0,0,0-.94,2.78,6,6,0,0,0,.49,2.54,4.89,4.89,0,0,0,1.29,1.77,5.32,5.32,0,0,0,1.87,1,7.72,7.72,0,0,0,2.21.32,12.41,12.41,0,0,0,3.14-.37,11.58,11.58,0,0,0,2.65-1,13,13,0,0,0,2.28-1.57c.71-.61,1.4-1.27,2.09-2Z"/><path d="M539.57,149.18V192h-2.83V149.18Z"/><path d="M572.23,162.72V192h-1.56a.79.79,0,0,1-.86-.76l-.26-4.36a16.59,16.59,0,0,1-4.7,4.06,11.7,11.7,0,0,1-5.93,1.53,11,11,0,0,1-4.27-.76,7.79,7.79,0,0,1-3-2.21,9.63,9.63,0,0,1-1.83-3.48,15.78,15.78,0,0,1-.62-4.59V162.72H552v18.73a10.06,10.06,0,0,0,1.88,6.46,6.93,6.93,0,0,0,5.74,2.34A10.41,10.41,0,0,0,565,188.8a15.08,15.08,0,0,0,4.43-4.05v-22Z"/><path d="M582.86,176.21v.56a19.89,19.89,0,0,0,.76,5.8,11.94,11.94,0,0,0,2.18,4.2,9,9,0,0,0,3.42,2.54,11.24,11.24,0,0,0,4.47.86,13.5,13.5,0,0,0,3.83-.49,14.34,14.34,0,0,0,2.73-1.09A15,15,0,0,0,602,187.5a2,2,0,0,1,.94-.48.67.67,0,0,1,.59.29l.76.94a7.85,7.85,0,0,1-1.87,1.65,13.09,13.09,0,0,1-2.59,1.31,18.5,18.5,0,0,1-3.06.87,16.5,16.5,0,0,1-3.28.32,13.87,13.87,0,0,1-5.48-1,11.6,11.6,0,0,1-4.24-3.05,13.69,13.69,0,0,1-2.72-4.9,21.15,21.15,0,0,1-1-6.64A18.12,18.12,0,0,1,581,171a13.4,13.4,0,0,1,2.59-4.59,11.8,11.8,0,0,1,4.15-3,13.75,13.75,0,0,1,5.58-1.09,12.13,12.13,0,0,1,4.59.86,10.19,10.19,0,0,1,3.68,2.48,11.74,11.74,0,0,1,2.46,4,15.47,15.47,0,0,1,.9,5.48,1.62,1.62,0,0,1-.17.88.69.69,0,0,1-.59.24Zm19.55-1.8a12.59,12.59,0,0,0-.66-4.22,9.21,9.21,0,0,0-1.87-3.17,8.46,8.46,0,0,0-2.87-2,9.52,9.52,0,0,0-3.67-.69,11,11,0,0,0-4.06.71,8.88,8.88,0,0,0-3.11,2,10.15,10.15,0,0,0-2.11,3.18,14.94,14.94,0,0,0-1.06,4.15Z"/><path d="M628.68,166.34a.75.75,0,0,1-.68.42,1.6,1.6,0,0,1-.83-.37,10.73,10.73,0,0,0-3.41-1.65,10.53,10.53,0,0,0-3-.37,8.65,8.65,0,0,0-2.9.46,7,7,0,0,0-2.23,1.22,5.29,5.29,0,0,0-1.43,1.78,4.7,4.7,0,0,0-.5,2.14,3.61,3.61,0,0,0,.7,2.29,6.27,6.27,0,0,0,1.84,1.56,13.06,13.06,0,0,0,2.61,1.12l3,.95c1,.31,2,.66,3,1a10.63,10.63,0,0,1,2.6,1.43,6.82,6.82,0,0,1,1.84,2.09,5.84,5.84,0,0,1,.71,3,9.34,9.34,0,0,1-.68,3.57,7.87,7.87,0,0,1-2,2.85,9.56,9.56,0,0,1-3.23,1.92,12.64,12.64,0,0,1-4.39.7,13.31,13.31,0,0,1-5.33-1,15.07,15.07,0,0,1-4-2.58l.65-1a1,1,0,0,1,.34-.35.94.94,0,0,1,.51-.12,1.51,1.51,0,0,1,.93.47,10.31,10.31,0,0,0,1.46,1,11.92,11.92,0,0,0,2.25,1,10.18,10.18,0,0,0,3.31.47,9.6,9.6,0,0,0,3.27-.51,6.94,6.94,0,0,0,2.36-1.4,5.84,5.84,0,0,0,1.42-2.08,6.47,6.47,0,0,0,.49-2.52,4.05,4.05,0,0,0-.71-2.44,6,6,0,0,0-1.85-1.65,13.61,13.61,0,0,0-2.61-1.15c-1-.31-2-.63-3-.94s-2-.66-3-1a10.61,10.61,0,0,1-2.6-1.41,6.84,6.84,0,0,1-1.86-2.08,6,6,0,0,1-.7-3.05,7,7,0,0,1,.67-3,7.76,7.76,0,0,1,1.93-2.53,9.43,9.43,0,0,1,3.05-1.74,11.87,11.87,0,0,1,4-.65,13.7,13.7,0,0,1,4.76.77,11.13,11.13,0,0,1,3.78,2.35Z"/><path class="cls-1" d="M47.69,151.52l-29.07,7.85a14.45,14.45,0,0,1-16.51-7.1c0-.09-.1-.18-.14-.27a14.48,14.48,0,0,1,9-20.84l57.4-15.48a20.4,20.4,0,0,1,25,24.94L78.09,198.07a14.49,14.49,0,0,1-20.81,9.05L57,207a14.46,14.46,0,0,1-7.16-16.49L57.6,161.4A8.08,8.08,0,0,0,47.69,151.52Z"/><path class="cls-2" d="M151.66,161.42l7.85,29.06a14.45,14.45,0,0,1-7.1,16.51l-.26.15a14.49,14.49,0,0,1-20.84-9l-15.49-57.4a20.4,20.4,0,0,1,24.94-25L198.22,131a14.49,14.49,0,0,1,9,20.81c0,.09-.09.18-.14.27a14.47,14.47,0,0,1-16.49,7.16l-29.09-7.75A8.08,8.08,0,0,0,151.66,161.42Z"/><path class="cls-3" d="M161.41,57.3l29.06-7.85A14.47,14.47,0,0,1,207,56.55c0,.09.09.18.14.27a14.49,14.49,0,0,1-9,20.84L140.75,93.14a20.39,20.39,0,0,1-25-24.94L131,10.75a14.48,14.48,0,0,1,20.8-9l.27.14a14.46,14.46,0,0,1,7.16,16.49l-7.75,29.09A8.08,8.08,0,0,0,161.41,57.3Z"/><path class="cls-4" d="M57.3,47.54,49.45,18.48A14.47,14.47,0,0,1,56.55,2l.27-.14a14.49,14.49,0,0,1,20.84,9L93.14,68.2a20.4,20.4,0,0,1-24.94,25L10.75,78a14.5,14.5,0,0,1-9-20.81l.14-.27a14.48,14.48,0,0,1,16.49-7.16l29.09,7.75A8.08,8.08,0,0,0,57.3,47.54Z"/></g></g></svg>